<svg id="logo" xmlns="http://www.w3.org/2000/svg" viewBox="0 0 390.13 307.34"><defs><style>.cls-1{fill:#fff;}.cls-2{fill:#0e132f;}.cls-3{fill:#5fcae7;}</style></defs><g id="White"><rect class="cls-1" x="27.26" y="259.47" width="14.98" height="14.98"/><rect class="cls-1" x="57.73" y="283.98" width="14.98" height="14.98"/></g><path class="cls-2" d="M275.64,76.22H289.7v43.37h-3.36q-10.54,0-13.45,6.16t-3.21,29.44q-.31,21.28-3.67,32.46t-14.82,16.94q11.46,6.28,15,17.93t3.51,34.94q.3,21.82,3.51,26.91t16.51,5.08v43.37H276.56q-18,0-27.51-5.08t-13.14-16.13q-3.67-11-3.67-35.27V263.75q0-20.88-4.2-28.31t-16.28-7.56v-46q12.84,0,16.66-8.16t3.82-28.92v-6.82q0-26,3.36-37.95t12.07-17.87Q256.39,76.22,275.64,76.22Z" transform="translate(-211.76 -76.22)"/><path class="cls-3" d="M322.54,383.56H308.48V340.19H312q10.54,0,13.45-6.16t3.05-29.18q.47-21,3.75-32.33T347,255.59a29.42,29.42,0,0,1-14.67-17.2q-3.81-11.44-3.82-35.81,0-21.81-3.28-27t-16.74-5.22V127h13.15q17.88,0,27.5,5.15a27.4,27.4,0,0,1,13.3,16.13q3.66,11,3.67,35.21v12.85q0,22,4.43,29t15.89,7.29v45.78q-12.69,0-16.5,8.1t-3.82,29.12v6.56q0,25.29-3.29,37.14T351.5,377.33Q343.48,383.56,322.54,383.56Z" transform="translate(-211.76 -76.22)"/><rect class="cls-3" x="174.66" y="89.77" width="11.63" height="11.63"/><rect class="cls-3" x="126.56" y="10.76" width="22.25" height="22.25"/><rect class="cls-3" x="190.94" y="15.93" width="8.91" height="8.91"/><rect class="cls-3" x="168.78" y="47.48" width="16.42" height="16.42"/><rect class="cls-1" x="117.32" y="70.28" width="14.98" height="14.98"/><rect class="cls-1" x="147.79" y="94.79" width="14.98" height="14.98"/><text x="-211.76" y="-76.22"/></svg>